<svg width="1080" height="1080" viewBox="0 0 1080 1080" fill="none" xmlns="http://www.w3.org/2000/svg">
<g clip-path="url(#clip0_4940_26)">
<rect width="1080" height="1080" fill="white"/>
<g clip-path="url(#clip1_4940_26)">
<path d="M540 1071C833.263 1071 1071 833.263 1071 540C1071 246.737 833.263 9 540 9C246.737 9 9 246.737 9 540C9 833.263 246.737 1071 540 1071Z" fill="#593322"/>
<path d="M649.393 1059.66C855.379 1016.51 1017.49 854.03 1060.03 647.83L712.113 299.913L659.314 308.847L659.287 308.82L600.844 250.383L540 290.876L479.157 250.383L439.967 312.116L367.888 299.913L357.268 372.198L286.423 390.424L306.08 460.789L248.807 506.215L295.398 562.536L261.551 627.283L325.066 690.798L322.469 732.73L649.393 1059.66Z" fill="#4B2A1B"/>
<path d="M540.036 290.856L600.864 250.396L640.048 312.129L712.127 299.914L722.787 372.232L793.572 390.417L773.92 460.789L831.194 506.195L784.609 562.523L818.485 627.263L753.016 659.795L757.594 732.744L684.549 735.778L659.088 804.281L591.155 777.383L540.036 829.606L488.867 777.383L420.94 804.281L395.452 735.778L322.434 732.744L327.011 659.795L261.551 627.263L295.419 562.523L248.807 506.195L306.099 460.789L286.429 390.417L357.233 372.232L367.894 299.914L439.988 312.129L479.145 250.396L540.036 290.856Z" fill="#FFF7EE"/>
<path d="M498.631 732.139L443.621 753.929L422.982 698.485L363.894 695.978L367.601 636.972L314.617 610.661L342.023 558.239L304.285 512.621L350.671 475.891L334.747 418.912L392.068 404.187L400.701 345.648L459.049 355.513L490.751 305.572L540.037 338.33L589.285 305.572L620.993 355.513L679.335 345.648L687.955 404.187L745.283 418.912L729.347 475.891L775.718 512.621L738.013 558.239L765.425 610.661L712.429 636.972L716.136 695.978L657.062 698.485L636.417 753.929L581.405 732.139L540.037 774.422L498.631 732.139Z" fill="#593322"/>
</g>
<path d="M451.8 472.908C451.8 472.338 451.971 471.882 452.313 471.54C452.769 471.084 453.282 470.856 453.852 470.856H469.414C469.984 470.856 470.44 471.084 470.782 471.54C471.238 471.882 471.466 472.338 471.466 472.908V588.508C471.466 589.078 471.238 589.592 470.782 590.048C470.44 590.39 469.984 590.561 469.414 590.561H451.458C450.318 590.561 449.577 589.991 449.235 588.85L423.755 516.344C423.641 516.002 423.413 515.888 423.071 516.002C422.843 516.002 422.729 516.173 422.729 516.515L422.9 588.508C422.9 589.078 422.672 589.592 422.216 590.048C421.874 590.39 421.418 590.561 420.848 590.561H405.286C404.716 590.561 404.203 590.39 403.747 590.048C403.405 589.592 403.234 589.078 403.234 588.508V472.908C403.234 472.338 403.405 471.882 403.747 471.54C404.203 471.084 404.716 470.856 405.286 470.856H422.9C424.04 470.856 424.781 471.426 425.123 472.566L450.774 544.56C450.888 544.902 451.059 545.073 451.287 545.073C451.629 544.959 451.8 544.731 451.8 544.389V472.908ZM558.138 485.904C558.138 486.474 557.91 486.987 557.454 487.443C557.112 487.785 556.656 487.957 556.086 487.957H519.149C518.579 487.957 518.294 488.242 518.294 488.812V521.132C518.294 521.702 518.579 521.987 519.149 521.987H541.038C541.608 521.987 542.064 522.215 542.406 522.671C542.862 523.013 543.09 523.469 543.09 524.039V537.206C543.09 537.776 542.862 538.289 542.406 538.746C542.064 539.088 541.608 539.259 541.038 539.259H519.149C518.579 539.259 518.294 539.544 518.294 540.114V572.605C518.294 573.175 518.579 573.46 519.149 573.46H556.086C556.656 573.46 557.112 573.688 557.454 574.144C557.91 574.486 558.138 574.942 558.138 575.512V588.508C558.138 589.078 557.91 589.592 557.454 590.048C557.112 590.39 556.656 590.561 556.086 590.561H500.509C499.939 590.561 499.426 590.39 498.97 590.048C498.628 589.592 498.457 589.078 498.457 588.508V472.908C498.457 472.338 498.628 471.882 498.97 471.54C499.426 471.084 499.939 470.856 500.509 470.856H556.086C556.656 470.856 557.112 471.084 557.454 471.54C557.91 471.882 558.138 472.338 558.138 472.908V485.904ZM601.159 590.561C599.791 590.561 599.05 589.934 598.936 588.679L576.192 473.079L576.021 472.395C576.021 471.369 576.648 470.856 577.902 470.856H594.318C595.686 470.856 596.427 471.483 596.541 472.737L608.512 544.047C608.626 544.389 608.797 544.56 609.025 544.56C609.253 544.56 609.424 544.389 609.538 544.047L620.311 472.737C620.425 471.483 621.166 470.856 622.534 470.856H636.215C637.583 470.856 638.324 471.483 638.438 472.737L650.067 544.047C650.181 544.389 650.352 544.56 650.58 544.56C650.808 544.56 650.979 544.389 651.093 544.047L661.866 472.737C661.98 471.483 662.721 470.856 664.089 470.856H679.993C681.475 470.856 682.102 471.597 681.874 473.079L660.156 588.679C660.042 589.934 659.301 590.561 657.933 590.561H643.397C642.029 590.561 641.288 589.934 641.174 588.679L629.717 516.002C629.603 515.546 629.432 515.318 629.204 515.318C628.976 515.318 628.805 515.546 628.691 516.002L618.088 588.679C617.974 589.934 617.233 590.561 615.865 590.561H601.159Z" fill="#FFF7EE"/>
</g>
<defs>
<clipPath id="clip0_4940_26">
<rect width="1080" height="1080" fill="white"/>
</clipPath>
<clipPath id="clip1_4940_26">
<rect width="1062" height="1062" fill="white" transform="translate(9 9)"/>
</clipPath>
</defs>
</svg>
